<?xml version="1.0" encoding="UTF-8" standalone="no"?>
<svg
   xmlns:dc="http://purl.org/dc/elements/1.1/"
   xmlns:cc="http://creativecommons.org/ns#"
   xmlns:rdf="http://www.w3.org/1999/02/22-rdf-syntax-ns#"
   xmlns:svg="http://www.w3.org/2000/svg"
   xmlns="http://www.w3.org/2000/svg"
   xmlns:sodipodi="http://sodipodi.sourceforge.net/DTD/sodipodi-0.dtd"
   xmlns:inkscape="http://www.inkscape.org/namespaces/inkscape"
   version="1.1"
   id="svg2"
   width="1284"
   height="2778"
   viewBox="0 0 1284 2778"
   sodipodi:docname="volume-svgrepo-com_splash.svg"
   inkscape:version="1.0.1 (3bc2e813f5, 2020-09-07)"
   inkscape:export-filename="C:\Workspace\Github\volume-setter\assets\volume-svgrepo-com_splash.png"
   inkscape:export-xdpi="96"
   inkscape:export-ydpi="96">
  <metadata
     id="metadata8">
    <rdf:RDF>
      <cc:Work
         rdf:about="">
        <dc:format>image/svg+xml</dc:format>
        <dc:type
           rdf:resource="http://purl.org/dc/dcmitype/StillImage" />
        <dc:title></dc:title>
      </cc:Work>
    </rdf:RDF>
  </metadata>
  <defs
     id="defs6" />
  <sodipodi:namedview
     pagecolor="#ffffff"
     bordercolor="#666666"
     borderopacity="1"
     objecttolerance="10"
     gridtolerance="10"
     guidetolerance="10"
     inkscape:pageopacity="0"
     inkscape:pageshadow="2"
     inkscape:window-width="2560"
     inkscape:window-height="1017"
     id="namedview4"
     showgrid="false"
     inkscape:zoom="0.21635737"
     inkscape:cx="-1064.5584"
     inkscape:cy="1382.5989"
     inkscape:window-x="-8"
     inkscape:window-y="-7"
     inkscape:window-maximized="1"
     inkscape:current-layer="g10"
     inkscape:document-rotation="0" />
  <g
     inkscape:groupmode="layer"
     inkscape:label="Image"
     id="g10">
    <g
       id="g115"
       transform="matrix(1.5900017,0,0,1.9543972,446.51575,626.44398)">
      <g
         id="g996"
         transform="translate(0.4145842,0.4145842)">
        <g
           id="g994">
          <g
             id="g973">
            <path
               style="fill:#517fa4;fill-opacity:1;stroke:#000000;stroke-opacity:1"
               d="m 235.12328,80.497908 c -1.35003,-3.719381 -5.3934,-5.641664 -9.03177,-4.2618 -3.66442,1.351937 -5.5356,5.479148 -4.2126,9.198586 0.1766,0.444434 15.6439,44.861296 -3.1278,88.794936 -1.55121,3.61807 0.0824,7.84065 3.64454,9.41793 0.837,0.35842 1.70674,0.5529 2.55622,0.58256 2.81928,0.0984 5.53486,-1.53277 6.72769,-4.31483 21.07059,-49.3347 4.16841,-97.418873 3.44372,-99.417382 z"
               id="path965" />
            <path
               style="fill:#517fa4;fill-opacity:1;stroke:#000000;stroke-opacity:1"
               d="m 200.17263,92.14914 c -3.75355,1.07993 -5.92201,5.05903 -4.84811,8.86829 0.08,0.28421 7.41119,27.39061 -5.78308,52.98434 -1.81205,3.49472 -0.49214,7.82561 2.94496,9.65953 0.80852,0.41878 1.66169,0.67642 2.5067,0.76821 2.80452,0.30467 5.63227,-1.12327 7.02562,-3.81053 15.80412,-30.59915 7.23116,-62.24915 6.8493,-63.55803 -1.04612,-3.80527 -4.93791,-6.0185 -8.69543,-4.91184 z"
               id="path967" />
            <path
               style="fill:#517fa4;fill-opacity:1;stroke:#000000;stroke-opacity:1"
               d="m 179.777,61.506 c -1.862,-1.096 -4.108,-1.287 -6.108,-0.493 L 80.164,97.797 c -2.712,1.068 -4.492,3.67 -4.519,6.601 l -0.575,58.749 c -0.055,2.931 1.698,5.587 4.355,6.71 l 92.739,38.728 c 0.876,0.356 1.78,0.548 2.684,0.548 1.205,0 2.41,-0.329 3.478,-0.931 1.89,-1.096 3.177,-3.013 3.506,-5.176 6.792,-46.232 7.258,-92.081 1.342,-136.315 -0.275,-2.164 -1.534,-4.082 -3.397,-5.205 z"
               id="path969" />
            <path
               style="fill:#517fa4;fill-opacity:1;stroke:#000000;stroke-opacity:1"
               d="M 59.759,99.522 48.776,99.385 c -0.11,0 -0.219,0 -0.356,0 -17.885,0 -32.565,14.735 -32.757,32.976 v 1.643 c -0.192,18.378 14.352,33.497 32.428,33.661 l 10.983,0.137 c 0.027,0 0.055,0 0.082,0 1.835,0 3.615,-0.74 4.93,-2.054 1.342,-1.342 2.109,-3.15 2.109,-5.04 l 0.548,-53.956 c 0.028,-3.97 -3.095,-7.202 -6.984,-7.23 z"
               id="path971" />
          </g>
          <g
             id="g992">
            <g
               id="XMLID_16_">
              <g
                 id="g989">
                <path
                   style="fill:#302c58;stroke:#000000;stroke-opacity:1"
                   d="m 36.922,93.286 -0.411,39.632 -3.944,-0.055 c -10.298,-0.11 -18.57,-8.71 -18.46,-19.172 v -1.643 c 0.055,-5.067 2.054,-9.833 5.615,-13.366 3.506,-3.506 8.135,-5.423 13.037,-5.423 0.082,0 0.137,0 0.219,0 z"
                   id="path975" />
                <path
                   style="fill:#302c58;stroke:#000000;stroke-opacity:1"
                   d="m 154.667,57.215 c 4.19,37.167 3.807,75.456 -1.205,114.13 L 73.541,137.958 74.034,88.932 Z"
                   id="path977" />
                <path
                   style="fill:#222051;stroke:#000000;stroke-opacity:1"
                   d="m 195.641,88.674 c 0.52,1.26 12.462,31.799 0.055,63.926 -1.096,2.821 -3.752,4.547 -6.573,4.547 -0.849,0 -1.725,-0.164 -2.575,-0.493 -3.615,-1.452 -5.396,-5.615 -3.971,-9.285 10.353,-26.868 0.137,-53.025 0.027,-53.299 -1.479,-3.67 0.246,-7.861 3.862,-9.34 3.615,-1.507 7.723,0.273 9.175,3.944 z"
                   id="path983" />
                <path
                   style="fill:#222051"
                   d="m 167.512,46.232 c 5.916,44.233 5.45,90.082 -1.342,136.315 -0.329,2.164 -1.616,4.081 -3.506,5.176 -1.068,0.603 -2.273,0.931 -3.478,0.931 -0.904,0 -1.808,-0.192 -2.684,-0.548 L 63.763,149.378 c -2.657,-1.123 -4.41,-3.78 -4.355,-6.71 l 0.575,-58.749 c 0.027,-2.931 1.808,-5.533 4.519,-6.601 l 93.506,-36.783 c 1.999,-0.794 4.245,-0.603 6.108,0.493 1.863,1.123 3.122,3.04 3.396,5.204 z m -14.05,125.112 c 5.012,-38.673 5.396,-76.963 1.205,-114.129 l -80.633,31.716 -0.493,49.026 z"
                   id="path985" />
                <path
                   style="fill:#222051"
                   d="m 44.098,79.044 c 3.889,0.027 7.012,3.259 6.984,7.231 l -0.548,53.956 c 0,1.89 -0.767,3.697 -2.109,5.04 -1.315,1.315 -3.095,2.054 -4.93,2.054 -0.027,0 -0.055,0 -0.082,0 L 32.43,147.188 C 14.353,147.024 -0.19,131.905 0.002,113.527 v -1.643 C 0.194,93.643 14.874,78.908 32.759,78.908 c 0.137,0 0.247,0 0.356,0 z m -7.587,53.874 0.411,-39.632 -3.944,-0.027 c -0.082,0 -0.137,0 -0.219,0 -4.903,0 -9.531,1.917 -13.037,5.423 -3.561,3.533 -5.56,8.299 -5.615,13.366 v 1.643 c -0.11,10.463 8.162,19.063 18.46,19.172 z"
                   id="path987" />
              </g>
            </g>
          </g>
        </g>
      </g>
      <g
         id="g998" />
      <g
         id="g1000" />
      <g
         id="g1002" />
      <g
         id="g1004" />
      <g
         id="g1006" />
      <g
         id="g1008" />
      <g
         id="g1010" />
      <g
         id="g1012" />
      <g
         id="g1014" />
      <g
         id="g1016" />
      <g
         id="g1018" />
      <g
         id="g1020" />
      <g
         id="g1022" />
      <g
         id="g1024" />
      <g
         id="g1026" />
      <path
         style="fill:#222051;fill-opacity:1;stroke:#000000;stroke-opacity:1"
         d="m 224.3905,72.726938 c -1.479,-3.67 -5.587,-5.449999 -9.175,-3.944 -3.615,1.479 -5.341,5.669 -3.889,9.34 0.192,0.438 17.2,44.288002 -0.027,88.850002 -1.424,3.67 0.356,7.833 3.971,9.285 0.849,0.329 1.725,0.493 2.575,0.493 2.821,0 5.478,-1.725 6.573,-4.547 19.336,-50.04 0.766,-97.505002 -0.028,-99.477002 z"
         id="path965-2" />
    </g>
  </g>
</svg>
